# xmcd
#
# Track frame offsets: 
#        150
#        24595
#        47675
#        71515
#        96035
#        118422
#        139752
#        155370
#        175645
#        191602
#        211857
#        235580
#        253227
#        277157
#        291325
#
# Disc length: 4132 seconds
#
# Revision: 1
# Processed by: cddbd v1.5.2PL0 Copyright (c) Steve Scherf et al.
# Submitted via: ExactAudioCopyFreeDBPlugin 1.0
#
DISCID=dd10220f
DTITLE=Various Artist - Juke Joint Saturday Night
DYEAR=2002
DGENRE=Blues
TTITLE0=Poonanny - Let It Roll
TTITLE1=Little Milton - Annie Mae's Cafe
TTITLE2=Bobby "Blue" Bland - You've Got To Hurt Before You Heal
TTITLE3=Bobby Rush - Hoochie Mama
TTITLE4=Carl Sims - Tie Me Up
TTITLE5=Artie White - How Long
TTITLE6=Z.Z. Hill - Bump And Grind
TTITLE7=Lynn White - Cheatin In The Next Room
TTITLE8=Mckinley Mitchell - Trouble Blues
TTITLE9=Ernest Johnson - I'm In The Mood For Blues
TTITLE10=Z.Z. Hill - Down Home Blues
TTITLE11=Bobby "Blue" Bland - Walkin and Talkin And Singin The Blues
TTITLE12=Johnnie Taylor - Last Two Dollars
TTITLE13=Joe Tex - Skinny Legs And All
TTITLE14=Willie Clayton - Three People
EXTD=
EXTT0=
EXTT1=
EXTT2=
EXTT3=
EXTT4=
EXTT5=
EXTT6=
EXTT7=
EXTT8=
EXTT9=
EXTT10=
EXTT11=
EXTT12=
EXTT13=
EXTT14=
PLAYORDER=
